<svg width="40" height="40" viewBox="0 0 40 40" xmlns="http://www.w3.org/2000/svg">
    <g fill="none" fill-rule="evenodd" opacity=".3">
        <path d="M0 0h40v40H0z"/>
        <g transform="translate(3.5 4.085)">
            <ellipse fill="#FFF" cx="16.192" cy="14.779" rx="12.641" ry="13.568"/>
            <path d="M15.98 27.633C16.92 29.048 18.67 30 20.675 30c2.996 0 5.426-2.126 5.426-4.75 0-1.91-1.29-3.558-3.148-4.31" fill="#FFF"/>
            <path d="M15.98 27.633C16.92 29.048 18.67 30 20.675 30c2.996 0 5.426-2.126 5.426-4.75 0-1.91-1.29-3.558-3.148-4.31" stroke="#7B23A7" stroke-width="2.36" stroke-linecap="round" stroke-linejoin="round"/>
            <path d="M22.62 5.47a3.37 3.37 0 0 0 .476-1.72c0-2.07-1.919-3.75-4.285-3.75-1.075 0-2.058.346-2.81.919" fill="#FFF"/>
            <path d="M22.62 5.47a3.37 3.37 0 0 0 .476-1.72c0-2.07-1.919-3.75-4.285-3.75-1.075 0-2.058.346-2.81.919" stroke="#7B23A7" stroke-width="2.36" stroke-linecap="round" stroke-linejoin="round"/>
            <path d="M25.666 23.106C29.198 22.931 32 20.37 32 17.234c0-2.218-1.402-4.15-3.47-5.151" fill="#FFF"/>
            <path d="M25.666 23.106C29.198 22.931 32 20.37 32 17.234c0-2.218-1.402-4.15-3.47-5.151" stroke="#7B23A7" stroke-width="2.36" stroke-linecap="round" stroke-linejoin="round"/>
            <path d="M25.654 14.416c2.05-.882 3.462-2.73 3.462-4.865 0-2.95-2.69-5.348-6.04-5.419" fill="#FFF"/>
            <path d="M25.654 14.416c2.05-.882 3.462-2.73 3.462-4.865 0-2.95-2.69-5.348-6.04-5.419" stroke="#7B23A7" stroke-width="2.36" stroke-linecap="round" stroke-linejoin="round"/>
            <path d="M16.02 27.633C15.08 29.048 13.328 30 11.324 30 8.328 30 5.9 27.874 5.9 25.25c0-1.91 1.289-3.558 3.147-4.31" fill="#FFF"/>
            <path d="M16.02 27.633C15.08 29.048 13.328 30 11.324 30 8.328 30 5.9 27.874 5.9 25.25c0-1.91 1.289-3.558 3.147-4.31" stroke="#7B23A7" stroke-width="2.36" stroke-linecap="round" stroke-linejoin="round"/>
            <path d="M9.38 5.47a3.37 3.37 0 0 1-.477-1.72c0-2.07 1.92-3.75 4.285-3.75 1.077 0 2.059.346 2.81.919" fill="#FFF"/>
            <path d="M9.38 5.47a3.37 3.37 0 0 1-.477-1.72c0-2.07 1.92-3.75 4.285-3.75 1.077 0 2.059.346 2.81.919" stroke="#7B23A7" stroke-width="2.36" stroke-linecap="round" stroke-linejoin="round"/>
            <path d="M6.334 23.106C2.802 22.931 0 20.37 0 17.234c0-2.218 1.4-4.15 3.47-5.151" fill="#FFF"/>
            <path d="M6.334 23.106C2.802 22.931 0 20.37 0 17.234c0-2.218 1.4-4.15 3.47-5.151" stroke="#7B23A7" stroke-width="2.36" stroke-linecap="round" stroke-linejoin="round"/>
            <g>
                <path d="M6.346 14.416c-2.051-.882-3.462-2.73-3.462-4.865 0-2.95 2.69-5.348 6.04-5.419" fill="#FFF"/>
                <path d="M6.346 14.416c-2.051-.882-3.462-2.73-3.462-4.865 0-2.95 2.69-5.348 6.04-5.419" stroke="#7B23A7" stroke-width="2.36" stroke-linecap="round" stroke-linejoin="round"/>
            </g>
            <g>
                <path fill="#FFF" d="M16 .918v26.723"/>
                <path stroke="#7B23A7" stroke-width="2.36" stroke-linecap="round" stroke-linejoin="round" d="M16 .918v26.723"/>
            </g>
            <g>
                <path d="M12.577 20.021c1.324.155 2.56.736 3.436 1.646" fill="#FFF"/>
                <path d="M12.577 20.021c1.324.155 2.56.736 3.436 1.646" stroke="#7B23A7" stroke-width="2.36" stroke-linecap="round" stroke-linejoin="round"/>
            </g>
            <g>
                <path d="M12.577 12.373c1.324.155 2.56.735 3.436 1.647" fill="#FFF"/>
                <path d="M12.577 12.373c1.324.155 2.56.735 3.436 1.647" stroke="#7B23A7" stroke-width="2.36" stroke-linecap="round" stroke-linejoin="round"/>
            </g>
            <g>
                <path d="M19.465 16.312c-1.325.155-2.559.735-3.437 1.646" fill="#FFF"/>
                <path d="M19.465 16.312c-1.325.155-2.559.735-3.437 1.646" stroke="#7B23A7" stroke-width="2.36" stroke-linecap="round" stroke-linejoin="round"/>
            </g>
            <g>
                <path d="M19.465 8.664c-1.325.154-2.559.735-3.437 1.646" fill="#FFF"/>
                <path d="M19.465 8.664c-1.325.154-2.559.735-3.437 1.646" stroke="#7B23A7" stroke-width="2.36" stroke-linecap="round" stroke-linejoin="round"/>
            </g>
        </g>
    </g>
</svg>
