<svg width="40" height="40" viewBox="0 0 40 40" xmlns="http://www.w3.org/2000/svg">
    <g fill="none" fill-rule="evenodd" opacity=".3">
        <path d="M0 0h40v40H0z"/>
        <path d="M16.902 4.74c-.069 3.443-.533 6.532-1.393 9.266-1.29 4.101-.232 10.703 2.13 12.964 1.574 1.507 4.47 3.599 8.687 6.275 1.645-2.048 3.147-3.37 4.503-3.967 2.036-.895 5.226-2.672 4.504-4.087-.721-1.416-2.098-2.249-1.962-2.912.136-.662.153-2.882-.506-3.215-.66-.333-2.237-.546-1.62-2.398.41-1.234.272-1.925-.416-2.071-2.695-.228-4.573-.898-5.634-2.01-.745-.782-1.7-3.866-4.13-6.133-.684-.639-2.072-1.209-4.163-1.711z" fill="#FFF"/>
        <path d="M16.902 4.641c6.129 1.123 7.117 6.078 8.237 7.796 1.12 1.717 6.722 2.378 6.722 2.378s-.857 2.642-.725 2.972c.132.33 1.12.793 1.516.991.395.199.263.925-.593 1.718-.857.793-2.175 1.783-2.175 1.783M33.507 21.617s-.718 1.08.336 1.675c1.054.594 1.65 1.54 1.453 2.796-.198 1.255-1.524 1.939-4.094 3.128-2.57 1.19-4.481 2.84-4.876 4.03" stroke="#7B23A8" stroke-width="2.4" stroke-linecap="round" stroke-linejoin="round"/>
        <path d="M27.449 37.867s1.516-.463 1.12-2.18c-.395-1.718-4.426-3.26-7.647-5.81-3.297-2.611-6.51-5.895-6.063-12.684.396-6.012 3.23-9.777 1.12-15.326" stroke="#7B23A8" stroke-width="2.4" stroke-linecap="round" stroke-linejoin="round"/>
        <path d="M13.882 5.368s.333 3.537-1.516 7.597c-2.264 4.973-4.07 9.908.33 16.251 3.58 5.16 10.94 6.143 10.94 6.143M9.018 10.967s.398.848-.132 3.105c-.988 3.442-5.615 6.47-2.636 12.948M21.065 11.66s-3.295 1.256-3.427 4.691M19.848 18.096s3.757.396 3.757-3.501" stroke="#7B23A8" stroke-width="2.4" stroke-linecap="round" stroke-linejoin="round"/>
    </g>
</svg>
