<svg width="40" height="40" viewBox="0 0 40 40" xmlns="http://www.w3.org/2000/svg">
    <g fill="none" fill-rule="evenodd" opacity=".3">
        <path d="M0 0h40v40H0z"/>
        <path d="M26.44 24.438a2.26 2.26 0 0 0-2.26-2.26c-.699 0-1.316.324-1.73.824a2.244 2.244 0 0 0-1.731-.824 2.26 2.26 0 0 0-2.26 2.26c0 1.18.907 2.137 2.06 2.24v9.116h4.119v-9.142a2.26 2.26 0 0 0 1.802-2.214" fill="#FFF"/>
        <path d="M24.637 35.794V26.65a2.26 2.26 0 0 0-.457-4.473c-.698 0-1.316.324-1.73.823a2.244 2.244 0 0 0-1.732-.823 2.253 2.253 0 0 0-.2 4.5v9.116" stroke="#7B23A7" stroke-width="1.4" stroke-linecap="round" stroke-linejoin="round"/>
        <path d="M17.384 19.568a2.26 2.26 0 0 0 3.188.223c.528-.458.78-1.108.766-1.757a2.245 2.245 0 0 0 1.847-.514 2.26 2.26 0 0 0 .222-3.188 2.252 2.252 0 0 0-3.023-.34l-5.98-6.88-3.11 2.703 5.998 6.9a2.261 2.261 0 0 0 .092 2.853" fill="#FFF"/>
        <path d="m11.294 9.815 5.999 6.9a2.26 2.26 0 0 0 3.279 3.076c.528-.459.78-1.108.766-1.757a2.245 2.245 0 0 0 1.846-.514 2.26 2.26 0 0 0 .223-3.188 2.252 2.252 0 0 0-3.023-.339l-5.981-6.88" stroke="#7B23A7" stroke-width="1.4" stroke-linecap="round" stroke-linejoin="round"/>
        <path d="M17.935 3.888s9.363 10.573 10.6 12.211c1.695 2.247 1.44 4.876 1.144 7.25-.296 2.375-1.357 12.763-1.357 12.763M17.41 36.246s-1.445-3.83-2.12-5.851c-.992-2.964.184-6.288-.17-7.377-.552-1.697-8.097-9.964-8.097-9.964" stroke="#7B23A7" stroke-width="2.4" stroke-linecap="round" stroke-linejoin="round"/>
    </g>
</svg>
