<svg width="60" height="60" viewBox="0 0 60 60" xmlns="http://www.w3.org/2000/svg">
    <g fill="none" fill-rule="evenodd">
        <path d="M0 0h60v60H0z"/>
        <path d="M40.808 53.775s5.679-7.338 5.697-14.6c.011-5.52-4.21-14.334-4.21-14.334-5.173-10.505 0-18.49 0-18.49s-10.632-4.165-26.09 0c0 0 5.174 7.985 0 18.49 0 0-4.223 8.815-4.21 14.335.017 7.261 5.697 14.599 5.697 14.599s7.86 3.881 23.116 0" fill="#FFF"/>
        <path d="M16.205 6.35s5.173 7.986 0 18.493c0 0-4.224 8.812-4.209 14.334.017 7.262 5.696 14.597 5.696 14.597M42.294 6.35s-5.173 7.986 0 18.493c0 0 4.224 8.812 4.21 14.334-.018 7.262-5.697 14.597-5.697 14.597" stroke="#7B23A7" stroke-width="2.4" stroke-linecap="round" stroke-linejoin="round"/>
        <path d="M16.205 6.35s5.173 7.986 0 18.493c0 0-4.224 8.812-4.209 14.334.017 7.262 5.696 14.597 5.696 14.597M40.808 53.775s5.679-7.338 5.697-14.6c.011-5.52-4.21-14.334-4.21-14.334-5.173-10.505 0-18.49 0-18.49" stroke="#7B23A7" stroke-width="2.4" stroke-linecap="round" stroke-linejoin="round"/>
        <path d="M15.325 26.838s12.662 8.846 28 .374M29.249 23.022v2.325M29.129 44.654v9.12M12.808 33.98s7.255-1.74 16.32 10.673c0 0 6.339-11.268 16.54-10.755M9 23.308c3.441-3.503 3.443-9.182.002-12.685L9 10.62M49.5 23.308c-3.441-3.503-3.443-9.182-.002-12.685l.002-.002" stroke="#7B23A7" stroke-width="2.4" stroke-linecap="round" stroke-linejoin="round"/>
    </g>
</svg>
