<svg width="60" height="61" viewBox="0 0 60 61" xmlns="http://www.w3.org/2000/svg">
    <g fill="none" fill-rule="evenodd">
        <path d="M0 .5h60v60H0z"/>
        <path d="M25.353 7.611c-.103 5.164-.8 9.797-2.09 13.898-1.935 6.152-.348 16.055 3.195 19.446 2.361 2.26 6.705 5.398 13.03 9.413 2.469-3.073 4.72-5.056 6.756-5.951 3.053-1.342 7.838-4.008 6.756-6.13-1.082-2.124-3.147-3.374-2.943-4.368.204-.994.229-4.323-.76-4.823s-3.355-.819-2.43-3.596c.616-1.852.409-2.888-.623-3.108-4.043-.342-6.86-1.347-8.45-3.015-1.12-1.172-2.55-5.798-6.196-9.2-1.027-.957-3.108-1.812-6.245-2.566z" fill="#FFF"/>
        <path d="M25.353 7.462c9.193 1.685 10.676 9.116 12.356 11.693 1.68 2.576 10.083 3.567 10.083 3.567s-1.285 3.964-1.088 4.459c.198.496 1.68 1.189 2.274 1.487.593.297.395 1.387-.89 2.576-1.285 1.189-3.262 2.675-3.262 2.675M50.261 32.925s-1.078 1.62.503 2.513c1.582.891 2.476 2.31 2.18 4.194-.297 1.882-2.286 2.908-6.141 4.692-3.855 1.784-6.722 4.26-7.315 6.044" stroke="#7B23A8" stroke-width="2.4" stroke-linecap="round" stroke-linejoin="round"/>
        <path d="M41.174 57.3s2.273-.694 1.68-3.27c-.593-2.576-6.64-4.89-11.471-8.715-4.946-3.916-9.764-8.842-9.094-19.026.593-9.017 4.844-14.665 1.68-22.989" stroke="#7B23A8" stroke-width="2.4" stroke-linecap="round" stroke-linejoin="round"/>
        <path d="M20.823 8.552s.5 5.305-2.273 11.396c-3.396 7.46-6.107 14.862.494 24.376 5.37 7.739 16.409 9.215 16.409 9.215M13.527 16.95s.596 1.273-.197 4.658c-1.482 5.163-8.423 9.706-3.954 19.421M31.598 17.991s-4.943 1.883-5.14 7.036M29.772 27.644s5.635.595 5.635-5.252" stroke="#7B23A8" stroke-width="2.4" stroke-linecap="round" stroke-linejoin="round"/>
    </g>
</svg>
