<svg width="40" height="40" viewBox="0 0 40 40" xmlns="http://www.w3.org/2000/svg">
    <g fill="none" fill-rule="evenodd" opacity=".3">
        <path d="M0 0h40v40H0z"/>
        <path d="M19.792 11.552C16.965 9.184 14.597 8 12.688 8c-2.864 0-7.045 3.737-7.045 5.21 0 1.474-2.337 3.37 1.357 8.925 3.694 5.554 5.553 7.28 7.942 9.045A22.223 22.223 0 0 0 20 34c5.55-3.62 9.293-6.502 11.228-8.647 2.902-3.218 4.106-6.516 4.106-9.47 0-2.955-3.57-7.883-7.56-7.883-2.66 0-5.322 1.184-7.982 3.552z" fill="#FFF"/>
        <path d="M10 26.366C15.75 32.426 20.074 34 20.074 34c9.39-6.095 12.66-10.961 12.66-10.961 7.279-10.103-3.041-14.517-3.041-14.517-5.555-2.034-9.813 2.532-9.813 2.532-5.001-4.647-9.845-2.333-9.845-2.333s-9.392 4.244-3.33 13.71l4.219-.043 2.174-7.558 4.387 11.135 1.454-3.871 3.395-.035" stroke="#7B23A8" stroke-width="2.4" stroke-linecap="round" stroke-linejoin="round"/>
    </g>
</svg>
