<svg width="20" height="21" viewBox="0 0 20 21" xmlns="http://www.w3.org/2000/svg">
    <g fill="none" fill-rule="evenodd">
        <path d="M0 0h20v20.141H0z"/>
        <g transform="translate(2 2.014)">
            <path d="M8 .5c2.07 0 3.945.846 5.302 2.212A7.561 7.561 0 0 1 15.5 8.057c0 2.087-.84 3.976-2.198 5.344A7.449 7.449 0 0 1 8 15.613a7.449 7.449 0 0 1-5.302-2.212A7.561 7.561 0 0 1 .5 8.057c0-2.088.84-3.977 2.198-5.345A7.449 7.449 0 0 1 8 .5z" stroke="#BBB"/>
            <path d="M6.496 5.34c.211-.789.77-1.183 1.677-1.183 1.39 0 1.825 1.005 1.825 1.855 0 .85-.403 1.125-.91 1.497-.506.372-1.12.575-1.12 1.234v.587" stroke="#BBB" stroke-linecap="round"/>
            <rect fill="#BBB" x="7.143" y="10.901" width="1.714" height="1.726" rx=".857"/>
        </g>
    </g>
</svg>
