<svg width="114" height="114" viewBox="0 0 114 114" xmlns="http://www.w3.org/2000/svg" xmlns:xlink="http://www.w3.org/1999/xlink">
    <defs>
        <linearGradient x1="33.892%" y1="31.697%" x2="53.713%" y2="55.818%" id="90tyt1bh3a">
            <stop stop-color="#9A5EB9" offset="0%"/>
            <stop stop-color="#A864CB" offset="100%"/>
        </linearGradient>
        <linearGradient x1="33.892%" y1="30.14%" x2="53.713%" y2="56.312%" id="u2j5mlty4b">
            <stop stop-color="#9A5EB9" offset="0%"/>
            <stop stop-color="#A864CB" offset="100%"/>
        </linearGradient>
        <linearGradient x1="82.868%" y1="78.833%" x2="82.868%" y2="224.526%" id="8uksz44lod">
            <stop stop-color="#E9E9F4" offset="0%"/>
            <stop stop-color="#FFF" offset="100%"/>
        </linearGradient>
        <linearGradient x1="82.14%" y1="78.833%" x2="24.294%" y2="20.304%" id="cmbzjdwgsg">
            <stop stop-color="#F5F5FF" offset="0%"/>
            <stop stop-color="#FFF" offset="100%"/>
        </linearGradient>
        <linearGradient x1="28.982%" y1="1.908%" x2="28.982%" y2="133.867%" id="j786xwg46j">
            <stop stop-color="#9D8FD7" offset="0%"/>
            <stop stop-color="#8D91DF" offset="100%"/>
        </linearGradient>
        <linearGradient x1=".039%" y1="0%" x2="129.786%" y2="100%" id="2k8reis6om">
            <stop stop-color="#A265C1" offset="0%"/>
            <stop stop-color="#DB9BFF" offset="100%"/>
        </linearGradient>
        <linearGradient x1="33.892%" y1="48.506%" x2="53.713%" y2="50.475%" id="bht4wrswtp">
            <stop stop-color="#A467C4" offset="0%"/>
            <stop stop-color="#B677D7" offset="100%"/>
        </linearGradient>
        <path d="m44.624 0 .738.006c24.304.399 43.885 20.447 43.885 45.12l-.006.746c-.394 24.579-20.219 44.38-44.617 44.38l-.738-.006C19.58 89.848 0 69.8 0 45.126 0 20.204 19.979 0 44.624 0z" id="eyp8u1nnjc"/>
        <path d="M0 45.126C0 70.05 19.979 90.252 44.624 90.252c24.645 0 44.623-20.203 44.623-45.126C89.247 20.204 69.27 0 44.624 0 19.979 0 0 20.204 0 45.126" id="iuamjd8f0f"/>
        <path d="M50 0h.202A49.67 49.67 0 0 1 69.28 3.855l.183.077.18.076A49.82 49.82 0 0 1 85.215 14.51l.14.14.14.14a49.842 49.842 0 0 1 10.497 15.577l.078.182.078.185A49.72 49.72 0 0 1 100 49.82v.403a49.72 49.72 0 0 1-3.853 19.085l-.077.183-.077.18a49.842 49.842 0 0 1-10.497 15.578l-.14.14-.14.14A49.82 49.82 0 0 1 69.645 96.03l-.182.077-.185.078A49.669 49.669 0 0 1 50.2 100.04h-.402a49.669 49.669 0 0 1-19.078-3.855l-.183-.077-.18-.076a49.82 49.82 0 0 1-15.572-10.502l-.14-.14-.14-.14A49.842 49.842 0 0 1 4.009 69.672l-.078-.182-.078-.185A49.722 49.722 0 0 1 0 50.22v-.403a49.722 49.722 0 0 1 3.853-19.085l.077-.183.077-.18A49.842 49.842 0 0 1 14.504 14.79l.14-.14.14-.14a49.82 49.82 0 0 1 15.753-10.58C36.703 1.324 43.251 0 50 0zm0 9.488h-.182a40.245 40.245 0 0 0-15.42 3.113l-.168.071-.166.07A40.374 40.374 0 0 0 21.48 21.23l-.13.13-.128.128a40.387 40.387 0 0 0-8.484 12.587l-.072.168-.07.167a40.287 40.287 0 0 0-3.113 15.425v.367a40.286 40.286 0 0 0 3.112 15.425l.071.169.07.166a40.388 40.388 0 0 0 8.484 12.587l.13.13.128.129A40.379 40.379 0 0 0 49.818 90.55h.364a40.244 40.244 0 0 0 15.42-3.113l.168-.071.166-.07a40.378 40.378 0 0 0 12.583-8.488l.13-.13.128-.128a40.39 40.39 0 0 0 8.484-12.587l.072-.168.07-.167a40.288 40.288 0 0 0 3.113-15.425v-.367a40.29 40.29 0 0 0-3.112-15.425l-.071-.169-.07-.166a40.39 40.39 0 0 0-8.484-12.587l-.13-.13-.128-.129a40.374 40.374 0 0 0-12.583-8.487l-.168-.072-.167-.07A40.248 40.248 0 0 0 50 9.488z" id="epz03dfr0i"/>
        <path d="M50 0h.202a49.668 49.668 0 0 1 19.26 3.932l.181.076A49.828 49.828 0 0 1 85.355 14.65l.14.14A49.844 49.844 0 0 1 96.07 30.549l.078.185C98.704 36.848 100 43.335 100 50.02v.203a49.72 49.72 0 0 1-3.93 19.268l-.077.18a49.85 49.85 0 0 1-10.638 15.718l-.139.14a49.821 49.821 0 0 1-15.753 10.58l-.185.077C63.166 98.742 56.68 100.04 50 100.04h-.202a49.668 49.668 0 0 1-19.26-3.932l-.181-.076a49.828 49.828 0 0 1-15.712-10.643l-.14-.139A49.844 49.844 0 0 1 3.93 69.489l-.078-.184C1.296 63.19 0 56.703 0 50.019v-.202a49.721 49.721 0 0 1 3.93-19.268l.077-.18A49.85 49.85 0 0 1 14.645 14.65l.139-.138a49.82 49.82 0 0 1 15.753-10.58C36.703 1.322 43.251 0 50 0m0 9.488h-.182a40.243 40.243 0 0 0-15.588 3.184l-.166.07A40.382 40.382 0 0 0 21.35 21.36l-.128.129a40.388 40.388 0 0 0-8.556 12.755l-.07.167a40.29 40.29 0 0 0-3.113 15.61v.182a40.285 40.285 0 0 0 3.183 15.594l.07.166a40.396 40.396 0 0 0 8.614 12.718l.128.128A40.379 40.379 0 0 0 50 90.55h.182a40.243 40.243 0 0 0 15.588-3.184l.166-.07A40.386 40.386 0 0 0 78.65 78.68l.128-.129a40.391 40.391 0 0 0 8.556-12.755l.07-.167a40.292 40.292 0 0 0 3.113-15.61v-.182a40.288 40.288 0 0 0-3.183-15.594l-.07-.166a40.397 40.397 0 0 0-8.614-12.718l-.128-.128a40.375 40.375 0 0 0-12.751-8.559l-.167-.07A40.248 40.248 0 0 0 50 9.488" id="yey8vchxul"/>
        <path d="M0 4.893c0 2.703 2.167 4.893 4.839 4.893 2.672 0 4.838-2.19 4.838-4.893C9.677 2.191 7.511 0 4.84 0S0 2.19 0 4.893z" id="h67tciqjco"/>
    </defs>
    <g fill="none" fill-rule="evenodd">
        <path d="M0 0h114v114H0z"/>
        <path fill="#C98AEC" d="m20.978 10.687 15.009 19.76 5.422-4.163-15.01-19.76z"/>
        <path d="M25.88.02h-.003a13.655 13.655 0 0 0-6.143 1.842l-8.4 4.878c-6.679 3.879-9.01 12.545-5.208 19.357L38.71 7.173C36.145 2.578 31.444 0 26.606 0c-.242 0-.484.006-.726.02" fill="url(#90tyt1bh3a)" transform="translate(7)"/>
        <path fill="#C98AEC" d="m71.516 26.283 5.422 4.164 15.008-19.76-5.42-4.163z"/>
        <path d="m61.29 6.839 32.311 20.345c4.083-6.763 2.024-15.626-4.598-19.796l-8.33-5.245A13.827 13.827 0 0 0 74.52.055h-.003A13.795 13.795 0 0 0 73.294 0c-4.726 0-9.342 2.428-12.004 6.839" fill="url(#u2j5mlty4b)" transform="translate(7)"/>
        <path stroke="#C98AEC" stroke-width="6.559" stroke-linecap="round" d="m30.656 109.825 7.527-15.223M83.344 109.825l-7.527-15.223"/>
        <g transform="translate(12.376 17.398)">
            <mask id="zugunaidde" fill="#fff">
                <use xlink:href="#eyp8u1nnjc"/>
            </mask>
            <path fill="url(#8uksz44lod)" mask="url(#zugunaidde)" d="M0 90.252h89.247V0H0z"/>
        </g>
        <g transform="translate(12.376 17.398)">
            <mask id="5d7r82ijkh" fill="#fff">
                <use xlink:href="#iuamjd8f0f"/>
            </mask>
            <path d="M0 45.126C0 70.05 19.979 90.252 44.624 90.252c24.645 0 44.623-20.203 44.623-45.126C89.247 20.204 69.27 0 44.624 0 19.979 0 0 20.204 0 45.126" fill="url(#cmbzjdwgsg)" mask="url(#5d7r82ijkh)"/>
        </g>
        <path fill="#C98AEC" d="m56.462 17.387 3.188.011.038-11.95-3.187-.011z"/>
        <path stroke="#C98AEC" stroke-width="2.186" stroke-linecap="round" d="M57.553 14.136v20.66M9.151 61.996h20.43M57.553 109.825v-20.66M104.849 61.996h-20.43"/>
        <g transform="translate(7 11.961)">
            <mask id="6xucysx8yk" fill="#fff">
                <use xlink:href="#epz03dfr0i"/>
            </mask>
            <path fill="url(#j786xwg46j)" mask="url(#6xucysx8yk)" d="M0 100.132h100.064V-.1H0z"/>
        </g>
        <g transform="translate(7 11.961)">
            <mask id="07g8h0f55n" fill="#fff">
                <use xlink:href="#yey8vchxul"/>
            </mask>
            <use fill="url(#2k8reis6om)" xlink:href="#yey8vchxul"/>
            <path d="M30.537 3.932A49.829 49.829 0 0 0 14.645 14.65 49.852 49.852 0 0 0 3.93 30.55C1.322 36.717 0 43.268 0 50.019c0 6.752 1.322 13.303 3.93 19.47a49.852 49.852 0 0 0 10.715 15.9 49.83 49.83 0 0 0 15.892 10.718c6.166 2.61 12.714 3.932 19.463 3.932 6.749 0 13.297-1.323 19.463-3.932a49.83 49.83 0 0 0 15.892-10.719A49.851 49.851 0 0 0 96.07 69.49C98.678 63.322 100 56.77 100 50.02c0-6.752-1.322-13.303-3.93-19.471A49.851 49.851 0 0 0 85.355 14.65 49.829 49.829 0 0 0 69.463 3.932C63.297 1.322 56.749 0 50 0c-6.749 0-13.297 1.323-19.463 3.932" fill="url(#2k8reis6om)" mask="url(#07g8h0f55n)"/>
        </g>
        <path stroke="#A568C5" stroke-width="4.373" stroke-linecap="round" d="m75.817 39.146-18.62 23.922-19.014-12.013"/>
        <use fill="#A568C5" xlink:href="#h67tciqjco" transform="translate(52.161 57.631)"/>
        <g transform="translate(50.01 3.262)" fill="url(#bht4wrswtp)">
            <path d="M13.342 0h-.001L1.71.008C.765.008-.001.738 0 1.636c0 .899.768 1.627 1.713 1.626l11.63-.008c.946 0 1.711-.73 1.71-1.628 0-.898-.766-1.626-1.71-1.626"/>
        </g>
    </g>
</svg>
