<svg width="115" height="114" viewBox="0 0 115 114" xmlns="http://www.w3.org/2000/svg">
    <defs>
        <linearGradient x1="5.329%" y1="0%" x2="121.338%" y2="100%" id="tbrwcbnk7a">
            <stop stop-color="#A265C1" offset="0%"/>
            <stop stop-color="#DB9BFF" offset="100%"/>
        </linearGradient>
    </defs>
    <g fill="none" fill-rule="evenodd">
        <path d="M.5 0h114v114H.5z"/>
        <path d="M84.849 104.697H6.426c-3.55 0-6.426-2.885-6.426-6.443V14.575c0-3.558 2.877-6.443 6.426-6.443h78.423c3.549 0 6.426 2.885 6.426 6.443v83.679c0 3.558-2.877 6.443-6.426 6.443" fill="url(#tbrwcbnk7a)" transform="translate(10.64 2.43)"/>
        <path d="M21.797 97.978H90.76v3.05c-22.988-3.195-45.976-3.275-68.963 0v-3.05z" fill="#000" opacity=".341"/>
        <path d="M19.802 18.693H93.77c.018 0 .033.015.033.033v80.237a.033.033 0 0 1-.033.032H19.802c-.019 0-.034-.015-.034-.032V18.726c0-.018.015-.033.034-.033" fill="#FFF"/>
        <path d="M56.278 5.81c1.317 0 2.384 1.085 2.384 2.423 0 1.339-1.067 2.424-2.384 2.424s-2.384-1.085-2.384-2.424c0-1.338 1.067-2.423 2.384-2.423m-9.203 2.423c2.13 0 3.208-.9 4.16-2.72.98-1.879 2.909-3.083 5.043-3.083 2.135 0 4.063 1.204 5.044 3.082.951 1.82 2.028 2.721 4.16 2.721h7.21c2.128 0 3.87 1.77 3.87 3.935v9.575H35.994v-9.575c0-2.164 1.741-3.935 3.87-3.935h7.21z" fill="#F3E1FF"/>
        <path d="M59.32 8.528a3.046 3.046 0 0 1-3.042 3.05 3.046 3.046 0 0 1-3.042-3.05h.587c0 1.36 1.1 2.46 2.455 2.46a2.457 2.457 0 0 0 2.455-2.46h.588z" fill="#E6E6E6"/>
        <path d="M30.366 30.89h9.23c.81 0 1.47.663 1.47 1.474v9.251c0 .81-.66 1.474-1.47 1.474h-9.23c-.809 0-1.47-.663-1.47-1.474v-9.25c0-.812.661-1.474 1.47-1.474z" stroke="#E2E5F2" stroke-width="3.054"/>
        <path d="M82.247 39.023H49.579c-1.341 0-2.428-.91-2.428-2.033 0-1.123 1.087-2.033 2.428-2.033h32.668c1.34 0 2.428.91 2.428 2.033 0 1.122-1.088 2.033-2.428 2.033" fill="#E9EBF4"/>
        <path d="M30.366 49.187h9.23c.81 0 1.47.663 1.47 1.474v9.251c0 .81-.66 1.473-1.47 1.473h-9.23c-.809 0-1.47-.663-1.47-1.473v-9.251c0-.811.661-1.474 1.47-1.474z" stroke="#E2E5F2" stroke-width="3.054"/>
        <path d="M82.247 58.336H49.579c-1.341 0-2.428-.91-2.428-2.033 0-1.123 1.087-2.033 2.428-2.033h32.668c1.34 0 2.428.91 2.428 2.033 0 1.123-1.088 2.033-2.428 2.033M82.238 77.649h-51.92c-1.345 0-2.436-.91-2.436-2.033 0-1.123 1.09-2.033 2.436-2.033h51.92c1.346 0 2.437.91 2.437 2.033 0 1.123-1.091 2.033-2.437 2.033M61.966 86.797h-31.66c-1.339 0-2.424-.91-2.424-2.033 0-1.123 1.085-2.033 2.425-2.033h31.66c1.339 0 2.424.91 2.424 2.033 0 1.123-1.085 2.033-2.425 2.033" fill="#E9EBF4"/>
        <path stroke="#A669C5" stroke-width="3.054" stroke-linecap="round" stroke-linejoin="round" d="m28.896 51.776 5.414 6.56 9.798-11.181"/>
    </g>
</svg>
