<svg width="60" height="60" viewBox="0 0 60 60" xmlns="http://www.w3.org/2000/svg">
    <g fill="none" fill-rule="evenodd">
        <path d="M0 0h60v60H0z"/>
        <path d="M39.66 36.657a3.39 3.39 0 0 0-3.389-3.39 3.366 3.366 0 0 0-2.596 1.235 3.366 3.366 0 0 0-2.597-1.235 3.39 3.39 0 0 0-3.39 3.39c0 1.77 1.36 3.205 3.09 3.36V53.69h6.178V39.977a3.391 3.391 0 0 0 2.705-3.32" fill="#FFF"/>
        <path d="M36.956 53.69V39.978a3.389 3.389 0 0 0-.685-6.71 3.367 3.367 0 0 0-2.597 1.235 3.366 3.366 0 0 0-2.596-1.234 3.39 3.39 0 0 0-3.39 3.389c0 1.77 1.36 3.205 3.09 3.36V53.69" stroke="#7B23A7" stroke-width="1.8" stroke-linecap="round" stroke-linejoin="round"/>
        <path d="M26.076 29.353a3.39 3.39 0 0 0 4.782.334 3.367 3.367 0 0 0 1.149-2.636 3.367 3.367 0 0 0 2.77-.771 3.389 3.389 0 0 0 .334-4.782 3.378 3.378 0 0 0-4.535-.509l-8.971-10.32-4.663 4.053 8.996 10.35a3.392 3.392 0 0 0 .138 4.28" fill="#FFF"/>
        <path d="m16.942 14.722 8.997 10.35a3.39 3.39 0 0 0 4.919 4.614 3.366 3.366 0 0 0 1.149-2.634 3.367 3.367 0 0 0 2.77-.772 3.39 3.39 0 0 0 .334-4.782 3.378 3.378 0 0 0-4.535-.508l-8.971-10.321" stroke="#7B23A7" stroke-width="1.8" stroke-linecap="round" stroke-linejoin="round"/>
        <path d="M26.902 5.833s14.045 15.858 15.9 18.316c2.543 3.37 2.162 7.314 1.716 10.875-.444 3.562-2.035 19.143-2.035 19.143M26.114 54.369s-2.167-5.746-3.18-8.777c-1.487-4.445.277-9.431-.254-11.066-.827-2.544-12.146-14.945-12.146-14.945" stroke="#7B23A7" stroke-width="2.4" stroke-linecap="round" stroke-linejoin="round"/>
    </g>
</svg>
