<svg width="60" height="60" viewBox="0 0 60 60" xmlns="http://www.w3.org/2000/svg">
    <g fill="none" fill-rule="evenodd">
        <path d="M0 0h60v60H0z"/>
        <path d="M29.688 17.328C25.448 13.776 21.896 12 19.032 12c-4.296 0-10.568 5.606-10.568 7.816S4.959 24.871 10.5 33.202s8.33 10.92 11.913 13.568A33.334 33.334 0 0 0 30 51c8.326-5.429 13.94-9.752 16.842-12.97C51.194 33.201 53 28.254 53 23.823 53 19.392 47.647 12 41.66 12c-3.99 0-7.981 1.776-11.972 5.328z" fill="#FFF"/>
        <path d="M15 39.55C23.626 48.64 30.113 51 30.113 51c14.084-9.143 18.99-16.442 18.99-16.442 10.917-15.154-4.563-21.775-4.563-21.775-8.332-3.051-14.72 3.798-14.72 3.798-7.501-6.97-14.766-3.5-14.766-3.5S.964 19.448 10.057 33.646l6.329-.065 3.261-11.336 6.58 16.703 2.182-5.807 5.092-.052" stroke="#7B23A8" stroke-width="2.4" stroke-linecap="round" stroke-linejoin="round"/>
    </g>
</svg>
