<svg width="40" height="40" viewBox="0 0 40 40" xmlns="http://www.w3.org/2000/svg">
    <g fill="none" fill-rule="evenodd" opacity=".3">
        <path d="M0 0h40v40H0z"/>
        <path d="M35.524 7.333H10.096c-3.62.723-5.43 2.503-5.43 5.34 0 4.256 4.712 5.347 5.43 5.347s-5.43-.898-5.43 5.57c.204 3.959 3.958 5.738 11.262 5.34h5.099c1.428-.143 2.142.83 2.142 2.922 0 2.09.008 3.726.025 4.907 2.158 1.655 4.039 1.655 5.642 0-.251-2.86 1.18-11.64-7.809-13.168 5.878-.846 9.182 1.487 10.213-3.932 1.032-5.419-4.499-6.982-3.451-6.982h7.735c.762-.89 1.143-1.83 1.143-2.82 0-.99-.381-1.83-1.143-2.524z" fill="#FFF"/>
        <path d="M35.524 7.333H10.096c-2.997 0-5.43 2.394-5.43 5.344s2.433 5.343 5.43 5.343h5.33M20.667 23.36c4.512 0 8.169 3.599 8.169 8.04v5.36" stroke="#7B23A8" stroke-width="2.4" stroke-linecap="round"/>
        <path d="M23.194 36.76v-5.355c0-1.48-1.219-2.677-2.72-2.677H10.107c-3.003 0-5.44-2.398-5.44-5.354 0-2.955 2.437-5.354 5.44-5.354h15.238" stroke="#7B23A8" stroke-width="2.4" stroke-linecap="round"/>
        <path d="M10.814 12.673H25.81c2.997 0 5.43 2.394 5.43 5.344s-2.433 5.343-5.43 5.343H10.814M35.524 12.677h-24.71" stroke="#7B23A8" stroke-width="2.4" stroke-linecap="round"/>
    </g>
</svg>
