<svg width="40" height="40" viewBox="0 0 40 40" xmlns="http://www.w3.org/2000/svg" xmlns:xlink="http://www.w3.org/1999/xlink">
    <defs>
        <path id="6s5hyasfaa" d="M0 0h23.006v34H0z"/>
    </defs>
    <g fill="none" fill-rule="evenodd" opacity=".3">
        <path d="M0 0h40v40H0z"/>
        <g transform="translate(7.997 3)">
            <mask id="u25holm95b" fill="#fff">
                <use xlink:href="#6s5hyasfaa"/>
            </mask>
            <path d="M19.208 32.85s3.786-4.892 3.798-9.733c.008-3.68-2.806-9.556-2.806-9.556-3.45-7.003 0-12.327 0-12.327s-7.088-2.777-17.393 0c0 0 3.448 5.324 0 12.327 0 0-2.816 5.876-2.807 9.556.011 4.841 3.798 9.733 3.798 9.733s5.24 2.588 15.41 0" fill="#FFF" mask="url(#u25holm95b)"/>
        </g>
        <path d="M10.803 4.234s3.449 5.323 0 12.328c0 0-2.815 5.875-2.805 9.556.01 4.841 3.796 9.732 3.796 9.732M28.196 4.234s-3.449 5.323 0 12.328c0 0 2.816 5.875 2.807 9.556-.012 4.841-3.798 9.732-3.798 9.732" stroke="#7B23A7" stroke-width="2.28" stroke-linecap="round" stroke-linejoin="round"/>
        <path d="M10.803 4.234s3.449 5.323 0 12.328c0 0-2.815 5.875-2.805 9.556.01 4.841 3.796 9.732 3.796 9.732M27.205 35.85s3.786-4.892 3.798-9.733c.008-3.68-2.806-9.556-2.806-9.556-3.45-7.003 0-12.327 0-12.327" stroke="#7B23A7" stroke-width="2.28" stroke-linecap="round" stroke-linejoin="round"/>
        <path d="M10.217 17.892s8.44 5.897 18.666.25M19.5 15.348v1.55M19.419 29.769v6.081M8.539 22.654s4.837-1.16 10.88 7.115c0 0 4.226-7.512 11.027-7.17M6 15.539c2.294-2.336 2.295-6.122.001-8.457L6 7.08M33 15.539c-2.294-2.336-2.295-6.122-.001-8.457L33 7.08" stroke="#7B23A7" stroke-width="2.28" stroke-linecap="round" stroke-linejoin="round"/>
    </g>
</svg>
