<svg width="40" height="40" viewBox="0 0 40 40" xmlns="http://www.w3.org/2000/svg" xmlns:xlink="http://www.w3.org/1999/xlink">
    <defs>
        <path id="60my2fevsa" d="M0 0h20.219v16.495H0z"/>
    </defs>
    <g fill="none" fill-rule="evenodd" opacity=".3">
        <path d="M0 0h40v40H0z"/>
        <g transform="translate(16.919 .5)">
            <mask id="zd5ufcmc0b" fill="#fff">
                <use xlink:href="#60my2fevsa"/>
            </mask>
            <path d="M20.219 8.247c0 4.556-4.527 8.248-10.109 8.248C4.526 16.495 0 12.803 0 8.247 0 3.692 4.526 0 10.11 0c5.582 0 10.109 3.692 10.109 8.247" fill="#FFF" mask="url(#zd5ufcmc0b)"/>
        </g>
        <path d="M32.794 18.226c.242 1.438.32 3.48-.339 5.89-.472 1.73-1.323 3.333-2.403 4.764l-1.34 1.775s-1.519 2.026-1.575 4.672v2.743M14.253 38.07v-3.078h-3.85c-.71 0-1.352-.339-1.842-.85-.332-.348-.896-.532-1.118-2.194l.09-3.11-3.18-1.741a.676.676 0 0 1-.254-.947l3.36-6.166s-1.172-7.957 6.705-10.623" stroke="#7B23A7" stroke-width="2.4" stroke-linecap="round" stroke-linejoin="round"/>
        <path d="M27.623 4.143s2.493-1.496 1.995 2.619M26.875 6.637s3.615-.374 5.361 2.494c1.998 3.282.749 4.739-.125 4.489-.872-.25-1.62-2.494-1.371-4.364" stroke="#7B23A7" stroke-width="1.2" stroke-linecap="round" stroke-linejoin="round"/>
        <path d="M30.366 10.627s-.25.998-2.618 1.497c-2.37.499-4.24-.873-4.49-1.497-.25-.624 0-2.368 1.247-.747 1.247 1.62-.997 3.116-3.49 2.991" stroke="#7B23A7" stroke-width="1.2" stroke-linecap="round" stroke-linejoin="round"/>
        <path d="M27.498 10.253s1.621 3.368-.125 4.115c-1.746.749-2.369-1.87-1.496-3.99.873-2.12 2.12-5.486-.623-5.985-2.743-.5.997 6.235 3.366 6.36 2.37.124 1.372-4.989 3.99-4.989 2.62 0-.125 3.243-4.364 3.492-4.24.25-7.73-1.123-8.355-1.87-.623-.748-.872-1.747 1.247-1.622 2.12.125 2.62 2.993-.872 5.113" stroke="#7B23A7" stroke-width="1.2" stroke-linecap="round" stroke-linejoin="round"/>
    </g>
</svg>
