<svg width="60" height="60" viewBox="0 0 60 60" xmlns="http://www.w3.org/2000/svg">
    <g fill="none" fill-rule="evenodd">
        <path d="M0 0h60v60H0z"/>
        <path d="M53.286 11H15.144C9.714 12.084 7 14.754 7 19.01c0 6.383 7.068 8.02 8.144 8.02C16.221 27.03 7 25.682 7 35.386c.305 5.937 5.935 8.606 16.892 8.009h7.649c2.141-.215 3.212 1.246 3.212 4.382 0 3.136.013 5.59.038 7.362 3.238 2.481 6.058 2.481 8.463 0-.377-4.29 1.77-17.461-11.713-19.753 8.816-1.269 13.772 2.23 15.32-5.898 1.547-8.128-6.75-10.473-5.178-10.473h11.603C54.43 17.681 55 16.271 55 14.786c0-1.485-.571-2.747-1.714-3.786z" fill="#FFF"/>
        <path d="M53.286 11H15.144C10.65 11 7 14.59 7 19.015c0 4.424 3.649 8.015 8.144 8.015h7.995M31 35.04c6.768 0 12.254 5.398 12.254 12.06v8.039" stroke="#7B23A8" stroke-width="2.4" stroke-linecap="round"/>
        <path d="M34.791 55.139v-8.031c0-2.22-1.828-4.016-4.08-4.016H15.16c-4.505 0-8.161-3.598-8.161-8.03 0-4.434 3.656-8.032 8.16-8.032h22.857" stroke="#7B23A8" stroke-width="2.4" stroke-linecap="round"/>
        <path d="M16.22 19.01h22.496c4.496 0 8.144 3.59 8.144 8.015 0 4.424-3.648 8.015-8.144 8.015H16.221M53.286 19.015H16.221" stroke="#7B23A8" stroke-width="2.4" stroke-linecap="round"/>
    </g>
</svg>
