<svg width="60" height="60" viewBox="0 0 60 60" xmlns="http://www.w3.org/2000/svg" xmlns:xlink="http://www.w3.org/1999/xlink">
    <defs>
        <path id="2nw7z06sma" d="M0 0h30.328v24.743H0z"/>
    </defs>
    <g fill="none" fill-rule="evenodd">
        <path d="M0 0h60v60H0z"/>
        <g transform="translate(25.378 .75)">
            <mask id="mpi51izqfb" fill="#fff">
                <use xlink:href="#2nw7z06sma"/>
            </mask>
            <path d="M30.328 12.371c0 6.833-6.79 12.372-15.163 12.372C6.79 24.743 0 19.204 0 12.37S6.79 0 15.165 0c8.374 0 15.163 5.538 15.163 12.371" fill="#FFF" mask="url(#mpi51izqfb)"/>
        </g>
        <path d="M49.19 27.338c.364 2.159.481 5.22-.507 8.835-.71 2.595-1.985 5-3.605 7.148l-2.01 2.662s-2.278 3.038-2.362 7.007v4.115M21.379 57.104v-4.617h-5.774c-1.064 0-2.03-.507-2.763-1.274-.5-.522-1.345-.797-1.678-3.29l.137-4.666-4.772-2.612a1.015 1.015 0 0 1-.38-1.42l5.038-9.248S9.431 18.04 21.246 14.04" stroke="#7B23A7" stroke-width="2.4" stroke-linecap="round" stroke-linejoin="round"/>
        <path d="M41.434 6.215s3.74-2.245 2.993 3.928M40.312 9.956s5.423-.562 8.042 3.74c2.997 4.923 1.123 7.108-.187 6.734-1.309-.374-2.432-3.74-2.057-6.547" stroke="#7B23A7" stroke-width="1.2" stroke-linecap="round" stroke-linejoin="round"/>
        <path d="M45.549 15.941s-.374 1.496-3.928 2.245c-3.553.748-6.359-1.309-6.733-2.245-.375-.936 0-3.553 1.87-1.121 1.87 2.43-1.496 4.674-5.236 4.487" stroke="#7B23A7" stroke-width="1.2" stroke-linecap="round" stroke-linejoin="round"/>
        <path d="M41.247 15.38s2.432 5.05-.187 6.172c-2.62 1.123-3.553-2.806-2.245-5.985 1.31-3.18 3.18-8.23-.934-8.978-4.115-.749 1.496 9.353 5.049 9.54 3.555.187 2.057-7.483 5.985-7.483 3.93 0-.187 4.864-6.547 5.238-6.359.375-11.595-1.685-12.531-2.806-.934-1.121-1.309-2.619 1.87-2.432 3.18.187 3.93 4.49-1.309 7.67" stroke="#7B23A7" stroke-width="1.2" stroke-linecap="round" stroke-linejoin="round"/>
    </g>
</svg>
